# xmcd
#
# Track frame offsets:
#	150
#	12478
#	56398
#	74509
#	102825
#	120770
#	152026
#	176017
#	204097
#	221190
#	248630
#	273224
#	304568
#	331448
#
# Disc length: 4775
#
# Revision: 1
# Processed by: cddbd v1.5.1PL0 Copyright (c) Steve Scherf et al.
# Submitted via: CDex 1.51
# Normalized: r0:TRMNUM
#
DISCID=ba12a50e
DTITLE=claude challe - nirvana lounge by claude challe cd1
DYEAR=1900
DGENRE=New Age
TTITLE0=Ramasutra Theme From "The Story Of O" 
TTITLE1=Chris Spheeris The Joy Of This Longing 
TTITLE2=Bellasonus From A Standstill 
TTITLE3=Amar Yarada
TTITLE4=Karunesh Punjab 
TTITLE5=Continuo La Mujer De Terah (Ben's Alternative Wisch Mix)
TTITLE6=Ajda Pekkan Bir Gunah Gibi (Nathalie) 
TTITLE7=Atman Path Of Love 
TTITLE8=Nacho Sotomayor Sometimes 
TTITLE9=Chris Spheeris Magaya 
TTITLE10=Declan Flynn Bahatu 
TTITLE11=Third Planet, The The Third Planet 
TTITLE12=Agricantus Hala Hala 
TTITLE13=Toirés Honeymoon In Africa III 
EXTD=
EXTT0=
EXTT1=
EXTT2=
EXTT3=
EXTT4=
EXTT5=
EXTT6=
EXTT7=
EXTT8=
EXTT9=
EXTT10=
EXTT11=
EXTT12=
EXTT13=
PLAYORDER=
